<?xml version="1.0" encoding="utf-8"?><svg width="auto" height="5470" style="overflow:visible " version="1.1" xmlns="http://www.w3.org/2000/svg"><rect x="20" y="20" width="200" height="40" style="fill:white;stroke:black;stroke-width:1" /><text x="30" y="30" font-size="10" style="fill:blue">xs:schema</text><text x="30" y="40" font-size="8" style="fill:black">xmlns:xs: http://www.w3.org/2001/XMLSchema</text><text x="30" y="50" font-size="8" style="fill:black">targetNamespace: http://www.uniovi.es</text><text x="30" y="60" font-size="8" style="fill:black">xmlns: http://www.uniovi.es</text><text x="30" y="70" font-size="8" style="fill:black">elementFormDefault: qualified</text><rect x="240" y="20" width="200" height="40" style="fill:white;stroke:black;stroke-width:1" /><text x="250" y="30" font-size="10" style="fill:blue">xs:element</text><path d="M220 40 C240 40 220 40 240 40" style="fill:transparent;stroke:black" /><text x="250" y="40" font-size="8" style="fill:black">name: circuito</text><rect x="460" y="20" width="200" height="40" style="fill:white;stroke:black;stroke-width:1" /><text x="470" y="30" font-size="10" style="fill:blue">xs:complexType</text><path d="M440 40 C460 40 440 40 460 40" style="fill:transparent;stroke:black" /><rect x="680" y="20" width="200" height="40" style="fill:white;stroke:black;stroke-width:1" /><text x="690" y="30" font-size="10" style="fill:blue">xs:sequence</text><path d="M660 40 C680 40 660 40 680 40" style="fill:transparent;stroke:black" /><rect x="900" y="20" width="200" height="40" style="fill:white;stroke:black;stroke-width:1" /><text x="910" y="30" font-size="10" style="fill:blue">xs:element</text><path d="M880 40 C900 40 880 40 900 40" style="fill:transparent;stroke:black" /><text x="910" y="40" font-size="8" style="fill:black">name: extension</text><rect x="1120" y="20" width="200" height="40" style="fill:white;stroke:black;stroke-width:1" /><text x="1130" y="30" font-size="10" style="fill:blue">xs:complexType</text><path d="M1100 40 C1120 40 1100 40 1120 40" style="fill:transparent;stroke:black" /><rect x="1340" y="20" width="200" height="40" style="fill:white;stroke:black;stroke-width:1" /><text x="1350" y="30" font-size="10" style="fill:blue">xs:simpleContent</text><path d="M1320 40 C1340 40 1320 40 1340 40" style="fill:transparent;stroke:black" /><rect x="1560" y="20" width="200" height="40" style="fill:white;stroke:black;stroke-width:1" /><text x="1570" y="30" font-size="10" style="fill:blue">xs:extension</text><path d="M1540 40 C1560 40 1540 40 1560 40" style="fill:transparent;stroke:black" /><text x="1570" y="40" font-size="8" style="fill:black">base: xs:unsignedInt</text><rect x="1780" y="20" width="200" height="40" style="fill:white;stroke:black;stroke-width:1" /><text x="1790" y="30" font-size="10" style="fill:blue">xs:attribute</text><path d="M1760 40 C1780 40 1760 40 1780 40" style="fill:transparent;stroke:black" /><text x="1790" y="40" font-size="8" style="fill:black">name: unidades</text><text x="1790" y="50" font-size="8" style="fill:black">type: xs:string</text><text x="1790" y="60" font-size="8" style="fill:black">use: required</text><rect x="900" y="270" width="200" height="40" style="fill:white;stroke:black;stroke-width:1" /><text x="910" y="280" font-size="10" style="fill:blue">xs:element</text><path d="M880 40 C900 40 880 290 900 290" style="fill:transparent;stroke:black" /><text x="910" y="290" font-size="8" style="fill:black">name: anchura</text><rect x="1120" y="270" width="200" height="40" style="fill:white;stroke:black;stroke-width:1" /><text x="1130" y="280" font-size="10" style="fill:blue">xs:complexType</text><path d="M1100 290 C1120 290 1100 290 1120 290" style="fill:transparent;stroke:black" /><rect x="1340" y="270" width="200" height="40" style="fill:white;stroke:black;stroke-width:1" /><text x="1350" y="280" font-size="10" style="fill:blue">xs:simpleContent</text><path d="M1320 290 C1340 290 1320 290 1340 290" style="fill:transparent;stroke:black" /><rect x="1560" y="270" width="200" height="40" style="fill:white;stroke:black;stroke-width:1" /><text x="1570" y="280" font-size="10" style="fill:blue">xs:extension</text><path d="M1540 290 C1560 290 1540 290 1560 290" style="fill:transparent;stroke:black" /><text x="1570" y="290" font-size="8" style="fill:black">base: xs:unsignedInt</text><rect x="1780" y="270" width="200" height="40" style="fill:white;stroke:black;stroke-width:1" /><text x="1790" y="280" font-size="10" style="fill:blue">xs:attribute</text><path d="M1760 290 C1780 290 1760 290 1780 290" style="fill:transparent;stroke:black" /><text x="1790" y="290" font-size="8" style="fill:black">name: unidades</text><text x="1790" y="300" font-size="8" style="fill:black">type: xs:string</text><text x="1790" y="310" font-size="8" style="fill:black">use: required</text><rect x="900" y="520" width="200" height="40" style="fill:white;stroke:black;stroke-width:1" /><text x="910" y="530" font-size="10" style="fill:blue">xs:element</text><path d="M880 40 C900 40 880 540 900 540" style="fill:transparent;stroke:black" /><text x="910" y="540" font-size="8" style="fill:black">name: bibliografia</text><rect x="1120" y="520" width="200" height="40" style="fill:white;stroke:black;stroke-width:1" /><text x="1130" y="530" font-size="10" style="fill:blue">xs:complexType</text><path d="M1100 540 C1120 540 1100 540 1120 540" style="fill:transparent;stroke:black" /><rect x="1340" y="520" width="200" height="40" style="fill:white;stroke:black;stroke-width:1" /><text x="1350" y="530" font-size="10" style="fill:blue">xs:sequence</text><path d="M1320 540 C1340 540 1320 540 1340 540" style="fill:transparent;stroke:black" /><rect x="1560" y="520" width="200" height="40" style="fill:white;stroke:black;stroke-width:1" /><text x="1570" y="530" font-size="10" style="fill:blue">xs:element</text><path d="M1540 540 C1560 540 1540 540 1560 540" style="fill:transparent;stroke:black" /><text x="1570" y="540" font-size="8" style="fill:black">minOccurs: 3</text><text x="1570" y="550" font-size="8" style="fill:black">maxOccurs: unbounded</text><text x="1570" y="560" font-size="8" style="fill:black">name: referencia</text><rect x="1780" y="520" width="200" height="40" style="fill:white;stroke:black;stroke-width:1" /><text x="1790" y="530" font-size="10" style="fill:blue">xs:complexType</text><path d="M1760 540 C1780 540 1760 540 1780 540" style="fill:transparent;stroke:black" /><rect x="2000" y="520" width="200" height="40" style="fill:white;stroke:black;stroke-width:1" /><text x="2010" y="530" font-size="10" style="fill:blue">xs:simpleContent</text><path d="M1980 540 C2000 540 1980 540 2000 540" style="fill:transparent;stroke:black" /><rect x="2220" y="520" width="200" height="40" style="fill:white;stroke:black;stroke-width:1" /><text x="2230" y="530" font-size="10" style="fill:blue">xs:extension</text><path d="M2200 540 C2220 540 2200 540 2220 540" style="fill:transparent;stroke:black" /><text x="2230" y="540" font-size="8" style="fill:black">base: xs:string</text><rect x="2440" y="520" width="200" height="40" style="fill:white;stroke:black;stroke-width:1" /><text x="2450" y="530" font-size="10" style="fill:blue">xs:attribute</text><path d="M2420 540 C2440 540 2420 540 2440 540" style="fill:transparent;stroke:black" /><text x="2450" y="540" font-size="8" style="fill:black">name: enlace</text><text x="2450" y="550" font-size="8" style="fill:black">type: xs:string</text><text x="2450" y="560" font-size="8" style="fill:black">use: required</text><rect x="900" y="920" width="200" height="40" style="fill:white;stroke:black;stroke-width:1" /><text x="910" y="930" font-size="10" style="fill:blue">xs:element</text><path d="M880 40 C900 40 880 940 900 940" style="fill:transparent;stroke:black" /><text x="910" y="940" font-size="8" style="fill:black">name: galeriaFotos</text><rect x="1120" y="920" width="200" height="40" style="fill:white;stroke:black;stroke-width:1" /><text x="1130" y="930" font-size="10" style="fill:blue">xs:complexType</text><path d="M1100 940 C1120 940 1100 940 1120 940" style="fill:transparent;stroke:black" /><rect x="1340" y="920" width="200" height="40" style="fill:white;stroke:black;stroke-width:1" /><text x="1350" y="930" font-size="10" style="fill:blue">xs:sequence</text><path d="M1320 940 C1340 940 1320 940 1340 940" style="fill:transparent;stroke:black" /><rect x="1560" y="920" width="200" height="40" style="fill:white;stroke:black;stroke-width:1" /><text x="1570" y="930" font-size="10" style="fill:blue">xs:element</text><path d="M1540 940 C1560 940 1540 940 1560 940" style="fill:transparent;stroke:black" /><text x="1570" y="940" font-size="8" style="fill:black">minOccurs: 1</text><text x="1570" y="950" font-size="8" style="fill:black">maxOccurs: 5</text><text x="1570" y="960" font-size="8" style="fill:black">name: foto</text><rect x="1780" y="920" width="200" height="40" style="fill:white;stroke:black;stroke-width:1" /><text x="1790" y="930" font-size="10" style="fill:blue">xs:complexType</text><path d="M1760 940 C1780 940 1760 940 1780 940" style="fill:transparent;stroke:black" /><rect x="2000" y="920" width="200" height="40" style="fill:white;stroke:black;stroke-width:1" /><text x="2010" y="930" font-size="10" style="fill:blue">xs:attribute</text><path d="M1980 940 C2000 940 1980 940 2000 940" style="fill:transparent;stroke:black" /><text x="2010" y="940" font-size="8" style="fill:black">name: enlace</text><text x="2010" y="950" font-size="8" style="fill:black">type: xs:string</text><text x="2010" y="960" font-size="8" style="fill:black">use: required</text><rect x="2000" y="970" width="200" height="40" style="fill:white;stroke:black;stroke-width:1" /><text x="2010" y="980" font-size="10" style="fill:blue">xs:attribute</text><path d="M1980 940 C2000 940 1980 990 2000 990" style="fill:transparent;stroke:black" /><text x="2010" y="990" font-size="8" style="fill:black">name: alt</text><text x="2010" y="1000" font-size="8" style="fill:black">type: xs:string</text><text x="2010" y="1010" font-size="8" style="fill:black">use: required</text><rect x="900" y="1270" width="200" height="40" style="fill:white;stroke:black;stroke-width:1" /><text x="910" y="1280" font-size="10" style="fill:blue">xs:element</text><path d="M880 40 C900 40 880 1290 900 1290" style="fill:transparent;stroke:black" /><text x="910" y="1290" font-size="8" style="fill:black">name: galeriaVideos</text><rect x="1120" y="1270" width="200" height="40" style="fill:white;stroke:black;stroke-width:1" /><text x="1130" y="1280" font-size="10" style="fill:blue">xs:complexType</text><path d="M1100 1290 C1120 1290 1100 1290 1120 1290" style="fill:transparent;stroke:black" /><rect x="1340" y="1270" width="200" height="40" style="fill:white;stroke:black;stroke-width:1" /><text x="1350" y="1280" font-size="10" style="fill:blue">xs:sequence</text><path d="M1320 1290 C1340 1290 1320 1290 1340 1290" style="fill:transparent;stroke:black" /><rect x="1560" y="1270" width="200" height="40" style="fill:white;stroke:black;stroke-width:1" /><text x="1570" y="1280" font-size="10" style="fill:blue">xs:element</text><path d="M1540 1290 C1560 1290 1540 1290 1560 1290" style="fill:transparent;stroke:black" /><text x="1570" y="1290" font-size="8" style="fill:black">minOccurs: 1</text><text x="1570" y="1300" font-size="8" style="fill:black">maxOccurs: 3</text><text x="1570" y="1310" font-size="8" style="fill:black">name: video</text><rect x="1780" y="1270" width="200" height="40" style="fill:white;stroke:black;stroke-width:1" /><text x="1790" y="1280" font-size="10" style="fill:blue">xs:complexType</text><path d="M1760 1290 C1780 1290 1760 1290 1780 1290" style="fill:transparent;stroke:black" /><rect x="2000" y="1270" width="200" height="40" style="fill:white;stroke:black;stroke-width:1" /><text x="2010" y="1280" font-size="10" style="fill:blue">xs:attribute</text><path d="M1980 1290 C2000 1290 1980 1290 2000 1290" style="fill:transparent;stroke:black" /><text x="2010" y="1290" font-size="8" style="fill:black">name: enlace</text><text x="2010" y="1300" font-size="8" style="fill:black">type: xs:string</text><text x="2010" y="1310" font-size="8" style="fill:black">use: required</text><rect x="2000" y="1320" width="200" height="40" style="fill:white;stroke:black;stroke-width:1" /><text x="2010" y="1330" font-size="10" style="fill:blue">xs:attribute</text><path d="M1980 1290 C2000 1290 1980 1340 2000 1340" style="fill:transparent;stroke:black" /><text x="2010" y="1340" font-size="8" style="fill:black">name: descripcion</text><text x="2010" y="1350" font-size="8" style="fill:black">type: xs:string</text><text x="2010" y="1360" font-size="8" style="fill:black">use: required</text><rect x="900" y="1620" width="200" height="40" style="fill:white;stroke:black;stroke-width:1" /><text x="910" y="1630" font-size="10" style="fill:blue">xs:element</text><path d="M880 40 C900 40 880 1640 900 1640" style="fill:transparent;stroke:black" /><text x="910" y="1640" font-size="8" style="fill:black">name: coordenadas</text><rect x="1120" y="1620" width="200" height="40" style="fill:white;stroke:black;stroke-width:1" /><text x="1130" y="1630" font-size="10" style="fill:blue">xs:complexType</text><path d="M1100 1640 C1120 1640 1100 1640 1120 1640" style="fill:transparent;stroke:black" /><rect x="1340" y="1620" width="200" height="40" style="fill:white;stroke:black;stroke-width:1" /><text x="1350" y="1630" font-size="10" style="fill:blue">xs:sequence</text><path d="M1320 1640 C1340 1640 1320 1640 1340 1640" style="fill:transparent;stroke:black" /><rect x="1560" y="1620" width="200" height="40" style="fill:white;stroke:black;stroke-width:1" /><text x="1570" y="1630" font-size="10" style="fill:blue">xs:element</text><path d="M1540 1640 C1560 1640 1540 1640 1560 1640" style="fill:transparent;stroke:black" /><text x="1570" y="1640" font-size="8" style="fill:black">name: longitud</text><rect x="1780" y="1620" width="200" height="40" style="fill:white;stroke:black;stroke-width:1" /><text x="1790" y="1630" font-size="10" style="fill:blue">xs:complexType</text><path d="M1760 1640 C1780 1640 1760 1640 1780 1640" style="fill:transparent;stroke:black" /><rect x="2000" y="1620" width="200" height="40" style="fill:white;stroke:black;stroke-width:1" /><text x="2010" y="1630" font-size="10" style="fill:blue">xs:simpleContent</text><path d="M1980 1640 C2000 1640 1980 1640 2000 1640" style="fill:transparent;stroke:black" /><rect x="2220" y="1620" width="200" height="40" style="fill:white;stroke:black;stroke-width:1" /><text x="2230" y="1630" font-size="10" style="fill:blue">xs:extension</text><path d="M2200 1640 C2220 1640 2200 1640 2220 1640" style="fill:transparent;stroke:black" /><text x="2230" y="1640" font-size="8" style="fill:black">base: xs:float</text><rect x="2440" y="1620" width="200" height="40" style="fill:white;stroke:black;stroke-width:1" /><text x="2450" y="1630" font-size="10" style="fill:blue">xs:attribute</text><path d="M2420 1640 C2440 1640 2420 1640 2440 1640" style="fill:transparent;stroke:black" /><text x="2450" y="1640" font-size="8" style="fill:black">name: unidades</text><text x="2450" y="1650" font-size="8" style="fill:black">type: xs:string</text><text x="2450" y="1660" font-size="8" style="fill:black">use: required</text><rect x="1560" y="1870" width="200" height="40" style="fill:white;stroke:black;stroke-width:1" /><text x="1570" y="1880" font-size="10" style="fill:blue">xs:element</text><path d="M1540 1640 C1560 1640 1540 1890 1560 1890" style="fill:transparent;stroke:black" /><text x="1570" y="1890" font-size="8" style="fill:black">name: latitud</text><rect x="1780" y="1870" width="200" height="40" style="fill:white;stroke:black;stroke-width:1" /><text x="1790" y="1880" font-size="10" style="fill:blue">xs:complexType</text><path d="M1760 1890 C1780 1890 1760 1890 1780 1890" style="fill:transparent;stroke:black" /><rect x="2000" y="1870" width="200" height="40" style="fill:white;stroke:black;stroke-width:1" /><text x="2010" y="1880" font-size="10" style="fill:blue">xs:simpleContent</text><path d="M1980 1890 C2000 1890 1980 1890 2000 1890" style="fill:transparent;stroke:black" /><rect x="2220" y="1870" width="200" height="40" style="fill:white;stroke:black;stroke-width:1" /><text x="2230" y="1880" font-size="10" style="fill:blue">xs:extension</text><path d="M2200 1890 C2220 1890 2200 1890 2220 1890" style="fill:transparent;stroke:black" /><text x="2230" y="1890" font-size="8" style="fill:black">base: xs:float</text><rect x="2440" y="1870" width="200" height="40" style="fill:white;stroke:black;stroke-width:1" /><text x="2450" y="1880" font-size="10" style="fill:blue">xs:attribute</text><path d="M2420 1890 C2440 1890 2420 1890 2440 1890" style="fill:transparent;stroke:black" /><text x="2450" y="1890" font-size="8" style="fill:black">name: unidades</text><text x="2450" y="1900" font-size="8" style="fill:black">type: xs:string</text><text x="2450" y="1910" font-size="8" style="fill:black">use: required</text><rect x="1560" y="2120" width="200" height="40" style="fill:white;stroke:black;stroke-width:1" /><text x="1570" y="2130" font-size="10" style="fill:blue">xs:element</text><path d="M1540 1640 C1560 1640 1540 2140 1560 2140" style="fill:transparent;stroke:black" /><text x="1570" y="2140" font-size="8" style="fill:black">name: altitud</text><rect x="1780" y="2120" width="200" height="40" style="fill:white;stroke:black;stroke-width:1" /><text x="1790" y="2130" font-size="10" style="fill:blue">xs:complexType</text><path d="M1760 2140 C1780 2140 1760 2140 1780 2140" style="fill:transparent;stroke:black" /><rect x="2000" y="2120" width="200" height="40" style="fill:white;stroke:black;stroke-width:1" /><text x="2010" y="2130" font-size="10" style="fill:blue">xs:simpleContent</text><path d="M1980 2140 C2000 2140 1980 2140 2000 2140" style="fill:transparent;stroke:black" /><rect x="2220" y="2120" width="200" height="40" style="fill:white;stroke:black;stroke-width:1" /><text x="2230" y="2130" font-size="10" style="fill:blue">xs:extension</text><path d="M2200 2140 C2220 2140 2200 2140 2220 2140" style="fill:transparent;stroke:black" /><text x="2230" y="2140" font-size="8" style="fill:black">base: xs:unsignedInt</text><rect x="2440" y="2120" width="200" height="40" style="fill:white;stroke:black;stroke-width:1" /><text x="2450" y="2130" font-size="10" style="fill:blue">xs:attribute</text><path d="M2420 2140 C2440 2140 2420 2140 2440 2140" style="fill:transparent;stroke:black" /><text x="2450" y="2140" font-size="8" style="fill:black">name: unidades</text><text x="2450" y="2150" font-size="8" style="fill:black">type: xs:string</text><text x="2450" y="2160" font-size="8" style="fill:black">use: required</text><rect x="900" y="2520" width="200" height="40" style="fill:white;stroke:black;stroke-width:1" /><text x="910" y="2530" font-size="10" style="fill:blue">xs:element</text><path d="M880 40 C900 40 880 2540 900 2540" style="fill:transparent;stroke:black" /><text x="910" y="2540" font-size="8" style="fill:black">name: puntos</text><rect x="1120" y="2520" width="200" height="40" style="fill:white;stroke:black;stroke-width:1" /><text x="1130" y="2530" font-size="10" style="fill:blue">xs:complexType</text><path d="M1100 2540 C1120 2540 1100 2540 1120 2540" style="fill:transparent;stroke:black" /><rect x="1340" y="2520" width="200" height="40" style="fill:white;stroke:black;stroke-width:1" /><text x="1350" y="2530" font-size="10" style="fill:blue">xs:sequence</text><path d="M1320 2540 C1340 2540 1320 2540 1340 2540" style="fill:transparent;stroke:black" /><rect x="1560" y="2520" width="200" height="40" style="fill:white;stroke:black;stroke-width:1" /><text x="1570" y="2530" font-size="10" style="fill:blue">xs:element</text><path d="M1540 2540 C1560 2540 1540 2540 1560 2540" style="fill:transparent;stroke:black" /><text x="1570" y="2540" font-size="8" style="fill:black">maxOccurs: unbounded</text><text x="1570" y="2550" font-size="8" style="fill:black">name: tramo</text><rect x="1780" y="2520" width="200" height="40" style="fill:white;stroke:black;stroke-width:1" /><text x="1790" y="2530" font-size="10" style="fill:blue">xs:complexType</text><path d="M1760 2540 C1780 2540 1760 2540 1780 2540" style="fill:transparent;stroke:black" /><rect x="2000" y="2520" width="200" height="40" style="fill:white;stroke:black;stroke-width:1" /><text x="2010" y="2530" font-size="10" style="fill:blue">xs:sequence</text><path d="M1980 2540 C2000 2540 1980 2540 2000 2540" style="fill:transparent;stroke:black" /><rect x="2220" y="2520" width="200" height="40" style="fill:white;stroke:black;stroke-width:1" /><text x="2230" y="2530" font-size="10" style="fill:blue">xs:element</text><path d="M2200 2540 C2220 2540 2200 2540 2220 2540" style="fill:transparent;stroke:black" /><text x="2230" y="2540" font-size="8" style="fill:black">name: distancia</text><rect x="2440" y="2520" width="200" height="40" style="fill:white;stroke:black;stroke-width:1" /><text x="2450" y="2530" font-size="10" style="fill:blue">xs:complexType</text><path d="M2420 2540 C2440 2540 2420 2540 2440 2540" style="fill:transparent;stroke:black" /><rect x="2660" y="2520" width="200" height="40" style="fill:white;stroke:black;stroke-width:1" /><text x="2670" y="2530" font-size="10" style="fill:blue">xs:simpleContent</text><path d="M2640 2540 C2660 2540 2640 2540 2660 2540" style="fill:transparent;stroke:black" /><rect x="2880" y="2520" width="200" height="40" style="fill:white;stroke:black;stroke-width:1" /><text x="2890" y="2530" font-size="10" style="fill:blue">xs:extension</text><path d="M2860 2540 C2880 2540 2860 2540 2880 2540" style="fill:transparent;stroke:black" /><text x="2890" y="2540" font-size="8" style="fill:black">base: xs:unsignedInt</text><rect x="3100" y="2520" width="200" height="40" style="fill:white;stroke:black;stroke-width:1" /><text x="3110" y="2530" font-size="10" style="fill:blue">xs:attribute</text><path d="M3080 2540 C3100 2540 3080 2540 3100 2540" style="fill:transparent;stroke:black" /><text x="3110" y="2540" font-size="8" style="fill:black">name: unidades</text><text x="3110" y="2550" font-size="8" style="fill:black">type: xs:string</text><text x="3110" y="2560" font-size="8" style="fill:black">use: required</text><rect x="2220" y="2770" width="200" height="40" style="fill:white;stroke:black;stroke-width:1" /><text x="2230" y="2780" font-size="10" style="fill:blue">xs:element</text><path d="M2200 2540 C2220 2540 2200 2790 2220 2790" style="fill:transparent;stroke:black" /><text x="2230" y="2790" font-size="8" style="fill:black">name: coordenadas</text><rect x="2440" y="2770" width="200" height="40" style="fill:white;stroke:black;stroke-width:1" /><text x="2450" y="2780" font-size="10" style="fill:blue">xs:complexType</text><path d="M2420 2790 C2440 2790 2420 2790 2440 2790" style="fill:transparent;stroke:black" /><rect x="2660" y="2770" width="200" height="40" style="fill:white;stroke:black;stroke-width:1" /><text x="2670" y="2780" font-size="10" style="fill:blue">xs:sequence</text><path d="M2640 2790 C2660 2790 2640 2790 2660 2790" style="fill:transparent;stroke:black" /><rect x="2880" y="2770" width="200" height="40" style="fill:white;stroke:black;stroke-width:1" /><text x="2890" y="2780" font-size="10" style="fill:blue">xs:element</text><path d="M2860 2790 C2880 2790 2860 2790 2880 2790" style="fill:transparent;stroke:black" /><text x="2890" y="2790" font-size="8" style="fill:black">name: longitud</text><rect x="3100" y="2770" width="200" height="40" style="fill:white;stroke:black;stroke-width:1" /><text x="3110" y="2780" font-size="10" style="fill:blue">xs:complexType</text><path d="M3080 2790 C3100 2790 3080 2790 3100 2790" style="fill:transparent;stroke:black" /><rect x="3320" y="2770" width="200" height="40" style="fill:white;stroke:black;stroke-width:1" /><text x="3330" y="2780" font-size="10" style="fill:blue">xs:simpleContent</text><path d="M3300 2790 C3320 2790 3300 2790 3320 2790" style="fill:transparent;stroke:black" /><rect x="3540" y="2770" width="200" height="40" style="fill:white;stroke:black;stroke-width:1" /><text x="3550" y="2780" font-size="10" style="fill:blue">xs:extension</text><path d="M3520 2790 C3540 2790 3520 2790 3540 2790" style="fill:transparent;stroke:black" /><text x="3550" y="2790" font-size="8" style="fill:black">base: xs:decimal</text><rect x="3760" y="2770" width="200" height="40" style="fill:white;stroke:black;stroke-width:1" /><text x="3770" y="2780" font-size="10" style="fill:blue">xs:attribute</text><path d="M3740 2790 C3760 2790 3740 2790 3760 2790" style="fill:transparent;stroke:black" /><text x="3770" y="2790" font-size="8" style="fill:black">name: unidades</text><text x="3770" y="2800" font-size="8" style="fill:black">type: xs:string</text><text x="3770" y="2810" font-size="8" style="fill:black">use: required</text><rect x="2880" y="3020" width="200" height="40" style="fill:white;stroke:black;stroke-width:1" /><text x="2890" y="3030" font-size="10" style="fill:blue">xs:element</text><path d="M2860 2790 C2880 2790 2860 3040 2880 3040" style="fill:transparent;stroke:black" /><text x="2890" y="3040" font-size="8" style="fill:black">name: latitud</text><rect x="3100" y="3020" width="200" height="40" style="fill:white;stroke:black;stroke-width:1" /><text x="3110" y="3030" font-size="10" style="fill:blue">xs:complexType</text><path d="M3080 3040 C3100 3040 3080 3040 3100 3040" style="fill:transparent;stroke:black" /><rect x="3320" y="3020" width="200" height="40" style="fill:white;stroke:black;stroke-width:1" /><text x="3330" y="3030" font-size="10" style="fill:blue">xs:simpleContent</text><path d="M3300 3040 C3320 3040 3300 3040 3320 3040" style="fill:transparent;stroke:black" /><rect x="3540" y="3020" width="200" height="40" style="fill:white;stroke:black;stroke-width:1" /><text x="3550" y="3030" font-size="10" style="fill:blue">xs:extension</text><path d="M3520 3040 C3540 3040 3520 3040 3540 3040" style="fill:transparent;stroke:black" /><text x="3550" y="3040" font-size="8" style="fill:black">base: xs:decimal</text><rect x="3760" y="3020" width="200" height="40" style="fill:white;stroke:black;stroke-width:1" /><text x="3770" y="3030" font-size="10" style="fill:blue">xs:attribute</text><path d="M3740 3040 C3760 3040 3740 3040 3760 3040" style="fill:transparent;stroke:black" /><text x="3770" y="3040" font-size="8" style="fill:black">name: unidades</text><text x="3770" y="3050" font-size="8" style="fill:black">type: xs:string</text><text x="3770" y="3060" font-size="8" style="fill:black">use: required</text><rect x="2880" y="3270" width="200" height="40" style="fill:white;stroke:black;stroke-width:1" /><text x="2890" y="3280" font-size="10" style="fill:blue">xs:element</text><path d="M2860 2790 C2880 2790 2860 3290 2880 3290" style="fill:transparent;stroke:black" /><text x="2890" y="3290" font-size="8" style="fill:black">name: altitud</text><rect x="3100" y="3270" width="200" height="40" style="fill:white;stroke:black;stroke-width:1" /><text x="3110" y="3280" font-size="10" style="fill:blue">xs:complexType</text><path d="M3080 3290 C3100 3290 3080 3290 3100 3290" style="fill:transparent;stroke:black" /><rect x="3320" y="3270" width="200" height="40" style="fill:white;stroke:black;stroke-width:1" /><text x="3330" y="3280" font-size="10" style="fill:blue">xs:simpleContent</text><path d="M3300 3290 C3320 3290 3300 3290 3320 3290" style="fill:transparent;stroke:black" /><rect x="3540" y="3270" width="200" height="40" style="fill:white;stroke:black;stroke-width:1" /><text x="3550" y="3280" font-size="10" style="fill:blue">xs:extension</text><path d="M3520 3290 C3540 3290 3520 3290 3540 3290" style="fill:transparent;stroke:black" /><text x="3550" y="3290" font-size="8" style="fill:black">base: xs:unsignedByte</text><rect x="3760" y="3270" width="200" height="40" style="fill:white;stroke:black;stroke-width:1" /><text x="3770" y="3280" font-size="10" style="fill:blue">xs:attribute</text><path d="M3740 3290 C3760 3290 3740 3290 3760 3290" style="fill:transparent;stroke:black" /><text x="3770" y="3290" font-size="8" style="fill:black">name: unidades</text><text x="3770" y="3300" font-size="8" style="fill:black">type: xs:string</text><text x="3770" y="3310" font-size="8" style="fill:black">use: required</text><rect x="2220" y="3670" width="200" height="40" style="fill:white;stroke:black;stroke-width:1" /><text x="2230" y="3680" font-size="10" style="fill:blue">xs:element</text><path d="M2200 2540 C2220 2540 2200 3690 2220 3690" style="fill:transparent;stroke:black" /><text x="2230" y="3690" font-size="8" style="fill:black">name: sector</text><text x="2230" y="3700" font-size="8" style="fill:black">type: xs:unsignedByte</text><rect x="900" y="4020" width="200" height="40" style="fill:white;stroke:black;stroke-width:1" /><text x="910" y="4030" font-size="10" style="fill:blue">xs:element</text><path d="M880 40 C900 40 880 4040 900 4040" style="fill:transparent;stroke:black" /><text x="910" y="4040" font-size="8" style="fill:black">name: vencedor</text><rect x="1120" y="4020" width="200" height="40" style="fill:white;stroke:black;stroke-width:1" /><text x="1130" y="4030" font-size="10" style="fill:blue">xs:complexType</text><path d="M1100 4040 C1120 4040 1100 4040 1120 4040" style="fill:transparent;stroke:black" /><rect x="1340" y="4020" width="200" height="40" style="fill:white;stroke:black;stroke-width:1" /><text x="1350" y="4030" font-size="10" style="fill:blue">xs:sequence</text><path d="M1320 4040 C1340 4040 1320 4040 1340 4040" style="fill:transparent;stroke:black" /><rect x="1560" y="4020" width="200" height="40" style="fill:white;stroke:black;stroke-width:1" /><text x="1570" y="4030" font-size="10" style="fill:blue">xs:element</text><path d="M1540 4040 C1560 4040 1540 4040 1560 4040" style="fill:transparent;stroke:black" /><text x="1570" y="4040" font-size="8" style="fill:black">name: duracion</text><rect x="1780" y="4020" width="200" height="40" style="fill:white;stroke:black;stroke-width:1" /><text x="1790" y="4030" font-size="10" style="fill:blue">xs:complexType</text><path d="M1760 4040 C1780 4040 1760 4040 1780 4040" style="fill:transparent;stroke:black" /><rect x="2000" y="4020" width="200" height="40" style="fill:white;stroke:black;stroke-width:1" /><text x="2010" y="4030" font-size="10" style="fill:blue">xs:simpleContent</text><path d="M1980 4040 C2000 4040 1980 4040 2000 4040" style="fill:transparent;stroke:black" /><rect x="2220" y="4020" width="200" height="40" style="fill:white;stroke:black;stroke-width:1" /><text x="2230" y="4030" font-size="10" style="fill:blue">xs:extension</text><path d="M2200 4040 C2220 4040 2200 4040 2220 4040" style="fill:transparent;stroke:black" /><text x="2230" y="4040" font-size="8" style="fill:black">base: xs:duration</text><rect x="2440" y="4020" width="200" height="40" style="fill:white;stroke:black;stroke-width:1" /><text x="2450" y="4030" font-size="10" style="fill:blue">xs:attribute</text><path d="M2420 4040 C2440 4040 2420 4040 2440 4040" style="fill:transparent;stroke:black" /><text x="2450" y="4040" font-size="8" style="fill:black">name: unidades</text><text x="2450" y="4050" font-size="8" style="fill:black">type: xs:string</text><text x="2450" y="4060" font-size="8" style="fill:black">use: required</text><rect x="1340" y="4320" width="200" height="40" style="fill:white;stroke:black;stroke-width:1" /><text x="1350" y="4330" font-size="10" style="fill:blue">xs:attribute</text><path d="M1320 4040 C1340 4040 1320 4340 1340 4340" style="fill:transparent;stroke:black" /><text x="1350" y="4340" font-size="8" style="fill:black">name: nombre</text><text x="1350" y="4350" font-size="8" style="fill:black">type: xs:string</text><text x="1350" y="4360" font-size="8" style="fill:black">use: required</text><rect x="900" y="4470" width="200" height="40" style="fill:white;stroke:black;stroke-width:1" /><text x="910" y="4480" font-size="10" style="fill:blue">xs:element</text><path d="M880 40 C900 40 880 4490 900 4490" style="fill:transparent;stroke:black" /><text x="910" y="4490" font-size="8" style="fill:black">name: top3</text><rect x="1120" y="4470" width="200" height="40" style="fill:white;stroke:black;stroke-width:1" /><text x="1130" y="4480" font-size="10" style="fill:blue">xs:complexType</text><path d="M1100 4490 C1120 4490 1100 4490 1120 4490" style="fill:transparent;stroke:black" /><rect x="1340" y="4470" width="200" height="40" style="fill:white;stroke:black;stroke-width:1" /><text x="1350" y="4480" font-size="10" style="fill:blue">xs:sequence</text><path d="M1320 4490 C1340 4490 1320 4490 1340 4490" style="fill:transparent;stroke:black" /><rect x="1560" y="4470" width="200" height="40" style="fill:white;stroke:black;stroke-width:1" /><text x="1570" y="4480" font-size="10" style="fill:blue">xs:element</text><path d="M1540 4490 C1560 4490 1540 4490 1560 4490" style="fill:transparent;stroke:black" /><text x="1570" y="4490" font-size="8" style="fill:black">maxOccurs: unbounded</text><text x="1570" y="4500" font-size="8" style="fill:black">name: piloto</text><rect x="1780" y="4470" width="200" height="40" style="fill:white;stroke:black;stroke-width:1" /><text x="1790" y="4480" font-size="10" style="fill:blue">xs:complexType</text><path d="M1760 4490 C1780 4490 1760 4490 1780 4490" style="fill:transparent;stroke:black" /><rect x="2000" y="4470" width="200" height="40" style="fill:white;stroke:black;stroke-width:1" /><text x="2010" y="4480" font-size="10" style="fill:blue">xs:simpleContent</text><path d="M1980 4490 C2000 4490 1980 4490 2000 4490" style="fill:transparent;stroke:black" /><rect x="2220" y="4470" width="200" height="40" style="fill:white;stroke:black;stroke-width:1" /><text x="2230" y="4480" font-size="10" style="fill:blue">xs:extension</text><path d="M2200 4490 C2220 4490 2200 4490 2220 4490" style="fill:transparent;stroke:black" /><text x="2230" y="4490" font-size="8" style="fill:black">base: xs:string</text><rect x="2440" y="4470" width="200" height="40" style="fill:white;stroke:black;stroke-width:1" /><text x="2450" y="4480" font-size="10" style="fill:blue">xs:attribute</text><path d="M2420 4490 C2440 4490 2420 4490 2440 4490" style="fill:transparent;stroke:black" /><text x="2450" y="4490" font-size="8" style="fill:black">name: puesto</text><text x="2450" y="4500" font-size="8" style="fill:black">type: xs:unsignedByte</text><text x="2450" y="4510" font-size="8" style="fill:black">use: required</text><rect x="2440" y="4520" width="200" height="40" style="fill:white;stroke:black;stroke-width:1" /><text x="2450" y="4530" font-size="10" style="fill:blue">xs:attribute</text><path d="M2420 4490 C2440 4490 2420 4540 2440 4540" style="fill:transparent;stroke:black" /><text x="2450" y="4540" font-size="8" style="fill:black">name: puntos</text><text x="2450" y="4550" font-size="8" style="fill:black">type: xs:unsignedShort</text><text x="2450" y="4560" font-size="8" style="fill:black">use: required</text><rect x="680" y="4970" width="200" height="40" style="fill:white;stroke:black;stroke-width:1" /><text x="690" y="4980" font-size="10" style="fill:blue">xs:attribute</text><path d="M660 40 C680 40 660 4990 680 4990" style="fill:transparent;stroke:black" /><text x="690" y="4990" font-size="8" style="fill:black">name: nombre</text><text x="690" y="5000" font-size="8" style="fill:black">type: xs:string</text><text x="690" y="5010" font-size="8" style="fill:black">use: required</text><rect x="680" y="5020" width="200" height="40" style="fill:white;stroke:black;stroke-width:1" /><text x="690" y="5030" font-size="10" style="fill:blue">xs:attribute</text><path d="M660 40 C680 40 660 5040 680 5040" style="fill:transparent;stroke:black" /><text x="690" y="5040" font-size="8" style="fill:black">name: fecha2025</text><text x="690" y="5050" font-size="8" style="fill:black">type: xs:date</text><text x="690" y="5060" font-size="8" style="fill:black">use: required</text><rect x="680" y="5070" width="200" height="40" style="fill:white;stroke:black;stroke-width:1" /><text x="690" y="5080" font-size="10" style="fill:blue">xs:attribute</text><path d="M660 40 C680 40 660 5090 680 5090" style="fill:transparent;stroke:black" /><text x="690" y="5090" font-size="8" style="fill:black">name: horaInicio</text><text x="690" y="5100" font-size="8" style="fill:black">type: xs:time</text><text x="690" y="5110" font-size="8" style="fill:black">use: required</text><rect x="680" y="5120" width="200" height="40" style="fill:white;stroke:black;stroke-width:1" /><text x="690" y="5130" font-size="10" style="fill:blue">xs:attribute</text><path d="M660 40 C680 40 660 5140 680 5140" style="fill:transparent;stroke:black" /><text x="690" y="5140" font-size="8" style="fill:black">name: nVueltas</text><text x="690" y="5150" font-size="8" style="fill:black">type: xs:integer</text><text x="690" y="5160" font-size="8" style="fill:black">use: required</text><rect x="680" y="5170" width="200" height="40" style="fill:white;stroke:black;stroke-width:1" /><text x="690" y="5180" font-size="10" style="fill:blue">xs:attribute</text><path d="M660 40 C680 40 660 5190 680 5190" style="fill:transparent;stroke:black" /><text x="690" y="5190" font-size="8" style="fill:black">name: pais</text><text x="690" y="5200" font-size="8" style="fill:black">type: xs:string</text><text x="690" y="5210" font-size="8" style="fill:black">use: required</text><rect x="680" y="5220" width="200" height="40" style="fill:white;stroke:black;stroke-width:1" /><text x="690" y="5230" font-size="10" style="fill:blue">xs:attribute</text><path d="M660 40 C680 40 660 5240 680 5240" style="fill:transparent;stroke:black" /><text x="690" y="5240" font-size="8" style="fill:black">name: localidad</text><text x="690" y="5250" font-size="8" style="fill:black">type: xs:string</text><text x="690" y="5260" font-size="8" style="fill:black">use: required</text><rect x="680" y="5270" width="200" height="40" style="fill:white;stroke:black;stroke-width:1" /><text x="690" y="5280" font-size="10" style="fill:blue">xs:attribute</text><path d="M660 40 C680 40 660 5290 680 5290" style="fill:transparent;stroke:black" /><text x="690" y="5290" font-size="8" style="fill:black">name: patrocinador</text><text x="690" y="5300" font-size="8" style="fill:black">type: xs:string</text><text x="690" y="5310" font-size="8" style="fill:black">use: required</text></svg>